<?xml version="1.0" encoding="UTF-8"?>
<svg xmlns="http://www.w3.org/2000/svg" xmlns:xlink="http://www.w3.org/1999/xlink" version="1.1" width="1080px" height="2024px" viewBox="0 0 1080 2024">
<g id="layer1" opacity="0.0">
<g style="fill:rgb(0,0,0); fill-opacity:1.0; stroke-linejoin: miter">
<path d="M849.57446,955.1132L849.57446,955.1132C849.57446,1104.4689,728.4978,1225.5458,579.14197,1225.5458L579.14197,1225.5458C429.78616,1225.5458,308.70947,1104.469,308.70947,955.1132L308.70947,955.1132C308.70947,805.7575,429.7862,684.68066,579.14197,684.68066L579.14197,684.68066C728.4979,684.68066,849.57446,805.7575,849.57446,955.1132L849.57446,955.1132 M839.57446,955.1132L839.57446,955.1132C839.57446,811.2803,722.9751,694.68066,579.14197,694.68066L579.14197,694.68066C435.30902,694.68066,318.70947,811.2803,318.70947,955.1132L318.70947,955.1132C318.70947,1098.9462,435.30902,1215.5458,579.14197,1215.5458L579.14197,1215.5458C722.975,1215.5458,839.57446,1098.946,839.57446,955.1132 Z"/>
</g>
<g style="fill:rgb(0,0,0); fill-opacity:1.0; stroke-linejoin: miter">
<path d="M605.8002,817.17706L605.8002,817.17706C605.8002,966.5332,484.72345,1087.6096,335.3677,1087.6096L335.3677,1087.6096C186.01196,1087.6096,64.93521,966.53296,64.93521,817.17706L64.93521,817.17706C64.93521,667.82135,186.01196,546.7445,335.3677,546.7445L335.3677,546.7445C484.7235,546.7445,605.8002,667.82135,605.8002,817.17706L605.8002,817.17706 M595.8002,817.17706L595.8002,817.17706C595.8002,673.3441,479.2007,556.7445,335.3677,556.7445L335.3677,556.7445C191.53479,556.7445,74.93521,673.3441,74.93521,817.17706L74.93521,817.17706C74.93521,961.01013,191.53479,1077.6096,335.3677,1077.6096L335.3677,1077.6096C479.20068,1077.6096,595.8002,961.0104,595.8002,817.17706 Z"/>
</g>
<g style="fill:rgb(0,0,0); fill-opacity:1.0; stroke-linejoin: miter">
<path d="M1092.3496,1146.0247L1092.3496,1146.0247C1092.3496,1295.3801,971.2727,1416.4573,821.9171,1416.4573L821.9171,1416.4573C672.5614,1416.4573,551.4847,1295.3801,551.4847,1146.0247L551.4847,1146.0247C551.4847,996.6688,672.5614,875.59216,821.9171,875.59216L821.9171,875.59216C971.2727,875.59216,1092.3496,996.66907,1092.3496,1146.0247L1092.3496,1146.0247 M1082.3496,1146.0247L1082.3496,1146.0247C1082.3496,1002.19183,965.74994,885.59216,821.9171,885.59216L821.9171,885.59216C678.08417,885.59216,561.4847,1002.19165,561.4847,1146.0247L561.4847,1146.0247C561.4847,1289.8573,678.0842,1406.4573,821.9171,1406.4573L821.9171,1406.4573C965.74994,1406.4573,1082.3496,1289.8573,1082.3496,1146.0247 Z"/>
</g>
</g>
<g id="layer2" opacity="0.0">
<g style="fill:rgb(0,0,0); fill-opacity:1.0; stroke-linejoin: miter">
<path d="M426.09705,667.8429L426.09607,667.8439L426.0952,667.845L426.0943,667.846L426.09338,667.84717C478.2636,650.2294,531.7492,632.10504,603.2034,639.0777L603.2026,639.07886C674.1423,646.00006,763.0693,677.68445,822.0223,730.9659L822.02124,730.9669C832.43243,740.3743,841.8855,750.4372,850.5386,761.0175L850.5375,761.01855C890.96783,810.4526,914.21985,871.6149,937.0195,931.40955C938.43884,935.1319,936.5717,939.3,932.8495,940.7195C929.12726,942.1389,924.95886,940.27216,923.5396,936.5495L923.53864,936.5506C900.5743,876.3204,878.0616,817.46075,839.37067,770.1509L839.3697,770.1518C831.1423,760.0896,822.1822,750.55615,812.349,741.66925L812.348,741.67035C756.178,690.90234,670.3892,660.12915,601.80225,653.4366L601.80133,653.4376C533.7305,646.79425,482.88092,663.8974,430.71222,681.5116C426.9375,682.78613,422.84442,680.7595,421.57007,676.98505C420.29572,673.2103,422.32257,669.1172,426.09705,667.8429L426.09607,667.8439L426.09705,667.8429L426.09607,667.8439 Z M295.9023,958.84033L295.9014,958.8415L295.90042,958.8424L295.89963,958.8436L295.89865,958.8445C336.551,972.0719,376.24146,984.9543,423.39868,986.9648L423.39777,986.9658C470.6751,988.9805,525.65845,980.05597,571.6234,962.1852L571.6225,962.1863C617.5234,944.3397,654.61707,917.52576,692.51184,890.0897C695.0626,888.243,698.51636,888.26404,701.0441,890.142C703.5718,892.02,704.5892,895.3208,703.5575,898.29596L703.5565,898.29706C680.383,965.1189,656.5992,1034.1605,598.1189,1084.5637L598.118,1084.5647C540.0444,1134.6167,448.1883,1165.7952,358.3726,1196.3995C354.6017,1197.6842,350.50314,1195.6691,349.2183,1191.8981C347.93332,1188.1271,349.94846,1184.0287,353.7195,1182.7435L353.71872,1182.7448C444.48514,1151.8157,533.2094,1121.4619,588.7003,1073.6357L588.6994,1073.6365C643.785,1026.1588,666.5509,960.97314,689.9268,893.56885L700.97235,901.77515C663.25397,929.08374,624.736,957.0143,576.85114,975.63165L576.8502,975.6327C529.0316,994.2234,472.05896,1003.47943,422.784,1001.3786L422.78308,1001.37964C373.3902,999.2725,331.93423,985.7412,291.43674,972.55896C287.64847,971.32587,285.57712,967.2552,286.81027,963.467C288.0435,959.67865,292.11417,957.60724,295.9023,958.84033L295.9014,958.8415L295.9023,958.84033L295.9014,958.8415 Z M628.43,1039.0682L628.429,1039.0692L628.4281,1039.0704L628.4272,1039.0713L628.4262,1039.0724C669.9873,1039.7028,712.503,1040.3239,750.2641,1048.7039L750.2631,1048.7048C788.14075,1057.1094,820.9634,1073.2539,852.9382,1088.9474C855.77893,1090.3417,857.3792,1093.4247,856.88477,1096.5502C856.3902,1099.6759,853.9163,1102.1141,850.784,1102.5634L850.7831,1102.5646C773.9147,1113.5887,698.1854,1124.487,641.8122,1145.5243L641.8112,1145.5253C585.83594,1166.4132,548.7622,1197.3997,510.83044,1229.1616C507.77594,1231.7192,503.22632,1231.3167,500.66876,1228.2622C498.11115,1225.2078,498.51392,1220.6582,501.56836,1218.1006L501.56738,1218.1016C539.4678,1186.3657,578.22394,1153.8551,636.7683,1132.0079L636.7674,1132.0089C694.9156,1110.3086,772.3951,1099.2322,848.73584,1088.2826L846.58167,1101.8986C814.40424,1086.1055,783.07544,1070.7632,747.13824,1062.7878L747.1374,1062.7891C711.0859,1054.7872,670.12695,1054.1337,628.2096,1053.4933C624.2263,1053.4327,621.0463,1050.1542,621.10724,1046.1708C621.1681,1042.1871,624.4465,1039.0074,628.43,1039.0682L628.429,1039.0692L628.43,1039.0682L628.429,1039.0692 Z M736.83234,1119.7568L736.8315,1119.7578L736.8305,1119.7588L736.82965,1119.7598L736.8341,1119.7546L736.6143,1120.0254L736.6125,1120.0276C672.5198,1198.9459,607.045,1279.7267,517.37866,1318.398L517.3777,1318.3989C430.22037,1355.9877,320.18002,1353.8412,238.9983,1298.4795L238.9976,1298.479C236.56905,1296.8223,234.18018,1295.1284,231.80388,1293.3767L231.8033,1293.3762C150.31926,1233.287,102.256226,1117.6584,91.77351,1027.532L91.77269,1027.5331C81.206055,936.67267,108.60531,870.82965,128.79759,833.0923L128.79677,833.0933C149.14209,795.07104,162.67554,784.6935,176.18187,774.5485L184.15544,786.54333L89.02515,842.1727C85.85476,844.02704,81.79752,843.20294,79.601585,840.2591C77.40565,837.31537,77.7721,833.1917,80.4527,830.6811L80.45175,830.6821C139.82706,775.07196,199.82071,718.8545,253.81152,682.77496L253.8107,682.7759C308.09332,646.5012,356.18985,630.6393,403.47055,615.0216C404.22336,614.77295,405.0118,614.65027,405.8046,614.65796L405.80368,614.659L478.53912,615.37805C481.39996,615.40643,483.9734,617.1228,485.09912,619.75275C486.22485,622.3829,485.68988,625.42975,483.73553,627.51904L483.73657,627.5178L483.52692,627.7422L483.52594,627.74335C419.38434,696.31396,356.99533,763.2372,334.78128,821.10266L334.7803,821.1037C312.98758,877.87335,329.93912,926.3751,348.071,977.56586C349.4011,981.3209,347.43503,985.44366,343.67978,986.77374C339.92447,988.1039,335.80197,986.1381,334.47183,982.3828L334.47086,982.38385C316.51297,931.6805,297.37427,878.28973,321.3127,815.9323L321.31174,815.9335C344.78067,754.8006,409.71634,685.5307,472.9901,617.8877L472.98914,617.88873L473.19873,617.66455L478.39636,629.8043L405.6617,629.0842L407.9957,628.7205C360.7546,644.32526,314.32886,659.6859,261.82733,694.7703L261.82642,694.7714C209.03401,730.04956,149.98528,785.3247,90.31469,841.21075L81.74229,829.719L176.87271,774.08954C180.17259,772.15985,184.40501,773.13934,186.52126,776.32306C188.63751,779.5066,187.90292,783.7882,184.84636,786.0841L184.84549,786.0851C172.7781,795.14856,160.73776,803.97974,141.51811,839.89874L141.51715,839.8998C122.14703,876.1014,95.993004,938.9301,106.10412,1025.8652L106.103294,1025.8662C116.30069,1113.5339,163.14806,1224.8221,240.36618,1281.7646L240.36552,1281.7644C242.60489,1283.4158,244.83624,1284.9978,247.12724,1286.5603L247.1266,1286.56C323.5474,1338.6752,428.23422,1341.1327,511.66547,1305.1506L511.6645,1305.1516C597.4813,1268.1399,660.7823,1190.515,725.4138,1110.9326L725.4119,1110.9343L725.63165,1110.6641C728.14496,1107.5693,732.688,1107.0984,735.7802,1109.6101C738.8728,1112.1216,739.34375,1116.6646,736.83234,1119.7568L736.8315,1119.7578L736.83234,1119.7568L736.8315,1119.7578 Z M586.56915,1260.3999L586.5682,1260.4011L586.5674,1260.4021L586.56647,1260.4031L586.5654,1260.4043C639.72034,1261.7521,690.86176,1262.9332,743.3348,1234.7307L743.33374,1234.7319C796.18005,1206.3284,850.9171,1147.7754,882.3174,1080.9716L882.31647,1080.9725C913.6893,1014.228,921.82556,939.2159,930.0529,862.7221C930.4289,859.22595,933.2709,856.51013,936.7807,856.29364C940.2902,856.07715,943.4447,858.42267,944.24774,861.84607L944.2474,861.84485L944.30945,862.1096L944.3098,862.111C952.53595,897.1795,960.89624,932.8716,962.1139,981.12634L962.113,981.1274C963.32947,1029.2987,957.4464,1090.4268,934.75476,1144.5597L934.7537,1144.5609C912.0905,1198.6268,872.8204,1245.1898,834.4798,1290.7393C831.9143,1293.7869,827.3638,1294.178,824.3159,1291.6128C821.2681,1289.0474,820.8772,1284.4968,823.4427,1281.449L823.44183,1281.45C862.07916,1235.5477,899.7871,1190.66,921.44965,1138.9828L921.44867,1138.9835C943.0847,1087.3704,948.87683,1028.4598,947.69165,981.4904L947.6908,981.49146C946.51447,934.8424,938.47437,900.406,930.2643,865.4059L930.26465,865.4073L930.20245,865.1422L944.3969,864.26483C936.22,940.28986,927.95215,1017.7983,895.37384,1087.1083L895.373,1087.1093C862.8241,1156.3577,806.0639,1217.3945,750.16455,1247.4387L750.16364,1247.44C693.8942,1277.682,639.0422,1276.1664,586.2021,1274.822C582.21936,1274.7207,579.0732,1271.4104,579.17456,1267.4275C579.2759,1263.4448,582.58655,1260.2986,586.56915,1260.3999L586.5682,1260.4011L586.56915,1260.3999L586.5682,1260.4011 Z M966.9992,1012.7808L966.9983,1012.7819L966.9974,1012.7831L966.99646,1012.7841L966.9956,1012.78516C954.11633,1110.1757,941.07245,1210.3287,874.25116,1286.9949L874.2503,1286.9958C807.67413,1363.3809,688.3837,1415.8046,588.8268,1420.1826L588.82587,1420.1838C488.7246,1424.5845,408.80063,1380.3973,330.82535,1337.4574C327.33566,1335.5355,326.06454,1331.1488,327.98636,1327.659C329.90817,1324.1693,334.295,1322.8978,337.78482,1324.8197L337.7839,1324.8209C416.22806,1368.0177,492.7212,1409.9683,588.193,1405.7699L588.1922,1405.7709C684.20886,1401.5475,799.64734,1350.6333,863.37555,1277.516L863.37463,1277.5167C926.85956,1204.6783,939.69775,1109.1628,952.6967,1010.88904C953.21924,1006.9396,956.84467,1004.1615,960.7938,1004.6837C964.74335,1005.20605,967.52155,1008.8314,966.9992,1012.7808L966.9983,1012.7819L966.9992,1012.7808L966.9983,1012.7819 Z M896.42395,1046.4171L896.42303,1046.4181L896.4221,1046.4193L897.32635,1040.9474C899.6835,1026.662,897.20605,990.5433,893.5293,957.95447L893.5284,957.9556C889.8436,925.2877,880.86017,880.07043,878.63074,857.12274C877.57874,846.294,877.5052,834.9772,876.47424,823.8868C875.80273,816.662,889.01935,841.8285,890.35956,845.28784L890.3587,845.28894C898.9815,867.5423,926.09106,939.4463,930.9876,953.04767C932.3371,956.7962,930.39233,960.92865,926.6439,962.278C922.89557,963.62756,918.763,961.6828,917.41364,957.93463L917.4128,957.9355C912.51843,944.3368,907.64246,930.79285,900.9003,912.9104L900.8994,912.91156C894.1566,895.0239,890.73883,846.65094,890.73883,846.65094C897.4025,884.75165,904.1203,923.1457,907.86505,956.33673L907.8642,956.33795C911.61884,989.6069,910.97314,1012.63336,911.7291,1040.321C911.83777,1044.3036,910.10425,1052.5702,906.1218,1052.6788C902.1394,1052.7875,898.7142,1045.6652,898.7142,1045.6652L896.42395,1046.4171L896.42303,1046.4181 Z"/>
</g>
<g style="fill:rgb(0,0,0); fill-opacity:1.0; stroke-linejoin: miter">
</g>
</g>
<g id="layer3" opacity="0.0">
<g style="fill:rgb(178,221,255); fill-opacity:1.0; stroke-linejoin: miter">
<path d="M1035.1423,1019.42505L1030.4989,1088.4475Q997.48615,1297.0383,837.3087,1422.1006Q676.0229,1547.0615,457.4585,1523.4431Q248.86726,1490.4304,123.80535,1330.2529Q83.73414,1278.4766,57.792473,1217.4191L35.989212,1154.6475Q18.021343,1089.8585,17.81933,1019.42505Q23.273857,803.27606,166.80284,659.7471Q310.3318,516.2181,526.48083,510.76355Q742.6299,516.2181,886.1589,659.7471Q1029.6879,803.27606,1035.1423,1019.42505"/>
</g>
</g>
<g id="layer4" opacity="0.0">
<g style="fill:url(#grad0); fill-opacity:1.0; stroke-linejoin: miter">
<path d="M861.3523,1168.7556Q828.0109,1235.6506,750.2345,1293.3796Q677.6832,1343.4756,584.1317,1352.666Q391.87433,1364.303,268.9054,1202.7737Q219.11244,1134.7231,209.096,1027.6588Q206.6265,924.9075,243.69067,855.4588Q298.79004,755.5703,371.0447,713.5475Q449.037,665.7505,540.3773,661.0221Q738.12115,659.49817,848.7339,823.4176Q947.3943,989.43915,861.3523,1168.7556"/>
</g>
<g style="fill:rgb(109,109,109); fill-opacity:1.0; stroke-linejoin: miter">
</g>
<g style="fill:url(#grad1); fill-opacity:1.0; stroke-linejoin: miter">
<path d="M877.959,825.89014L877.959,825.8911L877.959,825.8921L877.959,825.89307L877.959,825.89404L877.959,825.895L877.959,825.896L877.959,825.897L877.959,825.89795L877.959,825.8989L877.959,825.8999L877.959,825.9009L877.959,825.90186L877.959,825.90283L877.959,825.9038L877.959,825.9048L877.959,825.90576L877.959,825.90674L877.959,825.9077L877.959,825.9087L877.959,825.90967C907.81805,921.77405,922.2274,969.89636,876.0622,1078.363C798.73596,1260.0435,652.8975,1245.4656,582.2481,1236.5924C479.48053,1223.6853,498.527,1241.3733,518.4819,1224.1798C555.14777,1192.5878,575.9715,1173.605,582.32214,1168.6863C596.4491,1157.7446,612.2805,1147.5769,630.6865,1139.6312C672.8661,1121.4229,736.5072,1106.9084,821.27576,1095.3071L800.78485,1086.7617C739.8762,1060.3672,705.44366,1047.8242,697.7643,1046.5627C679.5515,1043.5709,667.8482,1040.8065,662.1766,1040.8065C661.643,1040.8065,661.16534,1040.873,660.74036,1040.8574C657.923,1040.7543,655.068,1040.6285,652.1685,1040.6285C645.9618,1040.6285,639.5616,1040.9781,632.96796,1041.6774C623.29395,1042.7032,613.1968,1044.6857,602.6764,1047.6249L586.57947,1052.8315C575.63477,1056.8319,564.2282,1061.3452,552.59546,1066.8765C510.5254,1086.8802,479.31677,1101.4272,458.7074,1109.9612C445.4649,1115.4447,431.9599,1120.2008,418.26212,1124.4385C391.7786,1132.6316,364.6969,1136.806,336.96884,1136.806C335.9231,1136.806,334.8764,1136.807,333.829,1136.7885C305.01086,1136.2795,275.70377,1132.7242,246.03818,1125.5913C201.36053,1114.8488,156.39606,1101.0247,111.01108,1084.6703L111.009964,1084.6713C141.08777,1156.1005,166.81908,1206.3047,187.39612,1235.852C249.49258,1325.0187,350.27133,1405.8346,485.04202,1429.5414C713.75134,1469.7723,882.91693,1345.6354,946.6356,1146.8497C980.11005,1042.4183,953.19714,922.19745,934.2967,837.53L932.8828,931.44354L877.9678,825.89014L877.959,825.8911L877.959,825.89014L877.959,825.8911L877.959,825.89014L877.959,825.8911L877.959,825.89014L877.959,825.8911L877.959,825.89014L877.959,825.8911L877.959,825.89014L877.959,825.8911L877.959,825.89014L877.959,825.8911L877.959,825.89014L877.959,825.8911L877.959,825.89014L877.959,825.8911L877.959,825.89014L877.959,825.8911 Z"/>
</g>
<g style="fill:rgb(109,109,109); fill-opacity:1.0; stroke-linejoin: miter">
</g>
<g style="fill:url(#grad2); fill-opacity:1.0; stroke-linejoin: miter">
<path d="M195.86588,1179.7996L195.86588,1179.8005L195.86588,1179.8015L195.86588,1179.8025L195.86588,1179.8035L195.86588,1179.8044L195.86588,1179.8054L195.86588,1179.8064L195.86588,1179.8074L195.86588,1179.8083L195.86588,1179.8093L195.86588,1179.8103L195.86588,1179.8113L195.86588,1179.8123L195.86588,1179.8132L195.86588,1179.8142C175.8928,1170.6188,195.86588,1179.7996,195.86588,1179.7996L195.86588,1179.8005L195.86588,1179.7996L195.86588,1179.8005L195.86588,1179.7996L195.86588,1179.8005L195.86588,1179.7996L195.86588,1179.8005L195.86588,1179.7996L195.86588,1179.8005L195.86588,1179.7996L195.86588,1179.8005L195.86588,1179.7996L195.86588,1179.8005L195.86588,1179.7996L195.86588,1179.8005L195.86588,1179.7996 Z M408.20346,616.5897L408.20346,616.5907L408.20346,616.5917L408.20346,616.59265L408.20346,616.5936L408.20346,616.5946L408.20346,616.5956L408.20346,616.59656L408.20346,616.59753L408.20346,616.5985L408.20346,616.5995L408.20346,616.60046L408.20346,616.60144L408.20346,616.6024L408.20346,616.6034L408.20346,616.6044C391.38602,615.3132,367.36264,626.71484,367.36264,626.71484C321.59802,648.43506,243.0628,686.65845,243.0628,686.65845C207.20247,711.129,156.6617,763.19653,79.03125,843.2318L160.034,788.16785L160.0356,788.1688C122.31528,837.24976,95.447495,909.6078,91.479,992.1879C89.6584,1030.0726,94.32544,1099.6735,117.383606,1152.0978C145.93224,1217.005,177.22092,1252.2887,211.39088,1277.5751C252.21039,1307.7822,307.87762,1334.8885,386.54495,1332.9668C483.02243,1330.61,534.6246,1295.081,559.18494,1279.0121C602.47363,1250.69,642.32104,1209.6818,668.1358,1136.8121L672.9241,1124.6489L672.91736,1124.6499C640.9113,1132.6082,615.4681,1143.2528,596.092,1155.8312C583.1442,1164.2365,572.7067,1170.5366,565.917,1176.2949C529.7209,1206.9923,509.58087,1224.1891,505.00986,1227.37C489.0832,1238.4532,475.5071,1246.4478,464.29892,1251.5454C434.97565,1264.8821,402.8322,1271.7803,367.6581,1271.7803C361.6501,1271.7803,355.53918,1271.7887,349.37494,1271.19C325.40115,1268.8613,306.78595,1263.2688,292.3625,1257.6102C284.42203,1254.495,268.99503,1247.1995,248.27936,1231.2891C229.26706,1216.6869,214.70282,1201.9076,203.21913,1188.6761L195.86708,1179.801L195.86905,1179.802C210.98132,1186.7474,273.3664,1216.2983,424.92062,1175.7524C516.1623,1151.3423,569.2059,1103.5273,618.79315,1056.0828C652.0977,1024.2173,680.0962,970.3385,700.0211,891.4673L700.01416,891.46826C638.39746,941.62537,581.38165,971.4525,529.34454,982.74084C496.02618,989.96857,465.74088,994.4752,438.08453,994.4752C403.3272,994.4752,372.93488,988.29724,346.90756,975.9415C317.85565,915.8257,311.53925,862.5883,329.81027,816.9565C338.13556,796.16406,350.78214,776.7782,365.91406,758.0319L467.2749,615.3077L408.20346,616.5897L408.20346,616.5907L408.20346,616.5897L408.20346,616.5907L408.20346,616.5897L408.20346,616.5907L408.20346,616.5897L408.20346,616.5907L408.20346,616.5897L408.20346,616.5907L408.20346,616.5897L408.20346,616.5907L408.20346,616.5897L408.20346,616.5907L408.20346,616.5897L408.20346,616.5907L408.20346,616.5897 Z"/>
</g>
<g style="fill:url(#grad3); fill-opacity:1.0; stroke-linejoin: miter">
<path d="M377.72858,742.486L367.88477,745.3843Q313.45108,760.8916,283.154,777.18304Q261.8817,789.3689,258.2811,792.7602Q242.49184,804.40393,229.34828,818.7931Q216.2047,833.1821,206.23715,849.5438Q194.59262,870.25226,193.36238,874.7732Q180.3109,904.87335,175.56857,956.3074L173.23633,984.4291Q210.68994,956.4907,240.6175,956.3014Q276.17084,955.0908,346.80542,975.91565Q327.97714,933.49347,322.6054,909.6476Q317.93997,885.763,318.55322,880.90155Q318.18134,871.26605,319.445,861.5412Q320.75827,851.8136,323.70706,841.9966Q324.38226,837.1318,335.49008,812.3852Q347.3041,787.6,377.72858,742.486"/>
</g>
<g style="fill:rgb(109,109,109); fill-opacity:1.0; stroke-linejoin: miter">
</g>
<g style="fill:url(#grad4); fill-opacity:1.0; stroke-linejoin: miter">
<path d="M772.7775,1380.5581L798.99536,1264.4349Q888.78284,1135.5929,907.20844,1069.2227Q921.75824,1024.8114,926.074,980.407Q928.4719,957.95325,929.4133,936.653Q930.8861,904.19495,930.66125,842.40106Q930.9651,834.49036,932.3003,834.3525Q935.6948,838.4506,938.4735,849.9751Q947.12994,886.05164,949.122,900.7139Q956.87994,944.7146,960.17847,999.6821Q961.6279,1026.6464,960.7637,1053.2345L959.1211,1079.2091Q956.67926,1104.6539,951.45056,1127.6611Q940.66693,1173.6586,922.6511,1210.1088Q904.6353,1246.5587,884.6073,1273.7316Q833.20575,1344.7797,772.7775,1380.5581"/>
</g>
<g style="fill:url(#grad5); fill-opacity:1.0; stroke-linejoin: miter">
<path d="M303.92975,659.11273L308.8878,659.1467Q341.94272,658.77203,355.7901,665.01263Q360.86423,666.7631,367.542,674.5605Q372.05627,680.31384,376.89258,693.036Q401.05954,661.49927,416.2772,648.8967Q430.9356,635.7293,466.521,615.7261Q443.52692,613.23773,431.47,613.3596Q419.37912,613.2693,406.40646,615.3305Q393.37982,617.4496,379.24304,622.5724Q358.39948,629.2637,303.92975,659.11273"/>
</g>
<g style="fill:rgb(109,109,109); fill-opacity:1.0; stroke-linejoin: miter">
</g>
<g style="fill:rgb(0,0,0); fill-opacity:1.0; stroke-linejoin: miter">
<path d="M90.70526,-1719.9758L90.70526,-1719.9758L90.70526,-1719.9758L90.70526,-1719.9758L90.70526,-1719.9758L90.70526,-1719.9758L90.70526,-1719.9758L90.70526,-1719.9758L90.70526,-1719.9758L90.70526,-1719.9758 M88.13992,-1710.3105L88.13992,-1710.3105L88.13992,-1710.3105L88.13992,-1710.3105L88.13992,-1710.3105L88.13992,-1710.3105L88.13992,-1710.3105L88.13992,-1710.3105L88.13992,-1710.3105 Z"/>
</g>
</g>
<g id="layer5">
<g style="fill:rgb(109,109,109); fill-opacity:1.0; stroke-linejoin: miter">
</g>
<g style="fill:rgb(109,109,109); fill-opacity:1.0; stroke-linejoin: miter">
</g>
<g style="fill:rgb(109,109,109); fill-opacity:1.0; stroke-linejoin: miter">
<path d="M-12.0026245,1181.9617L-5.379883,1204.8721L1.2428589,1227.7826L-12.0026245,1181.9617"/>
</g>
<g style="fill:rgb(109,109,109); fill-opacity:1.0; stroke-linejoin: miter">
</g>
<g style="fill:rgb(109,109,109); fill-opacity:1.0; stroke-linejoin: miter">
</g>
<g style="fill:rgb(109,109,109); fill-opacity:1.0; stroke-linejoin: miter">
<path d="M576.8823,587.0967L773.82654,227.78583L970.7708,-131.52502L576.8823,587.0967"/>
</g>
<g style="fill:rgb(255,255,255); fill-opacity:1.0; stroke-linejoin: miter">
<path d="M294.5463,781.81L294.5463,781.81L312.48352,761.3203C312.66418,761.11395,312.8533,760.91504,313.05032,760.7242L313.05032,760.7242L332.6109,741.7779C332.80792,741.58704,333.0127,741.4045,333.22473,741.23047L333.22473,741.23047L354.27615,723.9558C354.4882,723.7818,354.70728,723.61664,354.9329,723.46063L354.9329,723.46063L377.33273,707.9744C377.55835,707.8185,377.79028,707.6718,378.02795,707.5349L378.02795,707.5349L401.62466,693.9419C401.86234,693.805,402.10553,693.6779,402.35364,693.561L402.35364,693.561L426.9876,681.95306C427.23572,681.8361,427.48853,681.7295,427.74542,681.63336L427.74542,681.63336L453.25,672.0892C453.50687,671.99304,453.7676,671.90753,454.03152,671.8328L454.03152,671.8328L480.23422,664.4168C480.49814,664.3421,480.765,664.2783,481.03418,664.2256L481.03418,664.2256L507.75763,658.98804C508.0268,658.9353,508.298,658.8936,508.5706,658.86316L508.5706,658.86316L535.6341,655.8395C535.9067,655.809,536.18036,655.7898,536.4545,655.78186L536.4545,655.78186L563.675,654.99243C563.94916,654.9845,564.2236,654.98785,564.49744,655.00244L564.49744,655.00244L591.69073,656.45264C591.9646,656.4672,592.23785,656.49316,592.5096,656.5302L592.5096,656.5302L619.49164,660.21027C619.76337,660.2473,620.03357,660.2956,620.30133,660.35486L620.30133,660.35486L646.8897,666.2398C647.15753,666.2991,647.4228,666.36926,647.6848,666.4504L647.6848,666.4504L673.6997,674.50055C673.96173,674.5816,674.2203,674.67346,674.47473,674.7758L674.47473,674.7758L699.74,684.9366C699.99445,685.03894,700.2446,685.1517,700.4898,685.2746L700.4898,685.2746L724.83466,697.4773C725.07983,697.6002,725.31995,697.73315,725.5542,697.8758L725.5542,697.8758L748.8138,712.03784C749.04803,712.1805,749.27637,712.3327,749.4981,712.49414L749.4981,712.49414L771.51526,728.51984C771.737,728.6813,771.952,728.8517,772.1598,729.03076L772.1598,729.03076L792.78546,746.8115C792.9932,746.9906,793.1935,747.17816,793.3858,747.3737L793.3858,747.3737L812.4805,766.7894C812.67285,766.985,812.85706,767.18835,813.03265,767.39905L813.03265,767.39905L830.4672,788.31824C830.6428,788.52893,830.80963,788.7468,830.96735,788.97125L830.96735,788.97125L846.6238,811.2525C846.778,811.472,846.9234,811.69763,847.0595,811.92883L847.0595,811.92883L860.27026,834.37067C860.4033,834.5967,860.5274,834.8278,860.6423,835.0636L860.6423,835.0636L872.04846,858.47437C872.1633,858.71014,872.2689,858.9504,872.3649,859.19446L872.3649,859.19446L881.8959,883.42926C881.9919,883.67334,882.0782,883.92114,882.1547,884.172L882.1547,884.172L889.75146,909.08093C889.828,909.3318,889.89453,909.58563,889.9511,909.84174L889.9511,909.84174L895.5667,935.2706C895.6233,935.52673,895.66974,935.7849,895.706,936.0447L895.706,936.0447L899.3057,961.8363C899.342,962.09607,899.368,962.3572,899.3837,962.619L899.3837,962.619L900.9452,988.6138C900.96094,988.87555,900.9663,989.13794,900.9614,989.40015L900.9614,989.40015L900.4751,1015.43713C900.4702,1015.6994,900.455,1015.9613,900.4295,1016.22235L900.4295,1016.22235L897.8983,1042.1406C897.8728,1042.4016,897.8371,1042.6617,897.79114,1042.9199L897.79114,1042.9199L893.2308,1068.5591C893.1849,1068.8173,893.1288,1069.0736,893.0627,1069.3274L893.0627,1069.3274L886.5014,1094.5289C886.4353,1094.7827,886.35925,1095.0339,886.27344,1095.2817L886.27344,1095.2817L877.7517,1119.8895C877.6659,1120.1373,877.5704,1120.3817,877.46533,1120.6221L877.46533,1120.6221L867.036,1144.484C866.93097,1144.7244,866.8165,1144.9604,866.69293,1145.1918L866.69293,1145.1918L854.4205,1168.1603C854.2969,1168.3916,854.1642,1168.6179,854.02277,1168.8389L854.02277,1168.8389L839.98303,1190.7717C839.8416,1190.9927,839.6916,1191.2079,839.53326,1191.417L839.53326,1191.417L823.8133,1212.1786C823.65497,1212.3877,823.48846,1212.5905,823.3142,1212.7865L823.3142,1212.7865L806.01105,1232.2484C802.34143,1236.3759,796.0207,1236.747,791.89325,1233.0774C787.7658,1229.4078,787.39465,1223.087,791.0643,1218.9596L791.0643,1218.9596L808.36743,1199.4977L807.86835,1200.1056L823.5883,1179.344L823.13855,1179.9893L837.1783,1158.0564L836.7806,1158.735L849.05304,1135.7665L848.70996,1136.4742L859.1393,1112.6123L858.8529,1113.3448L867.37463,1088.737L867.14667,1089.4899L873.70795,1064.2883L873.53986,1065.0566L878.1002,1039.4175L877.99304,1040.1968L880.52423,1014.2784L880.47864,1015.0636L880.96497,989.0266L880.9812,989.813L879.41974,963.81824L879.49774,964.60095L875.898,938.8093L876.0373,939.5834L870.4217,914.1545L870.62134,914.9153L863.0246,890.00635L863.28345,890.7491L853.7525,866.5143L854.069,867.2344L842.6628,843.8236L843.0348,844.51654L829.82404,822.0747L830.25977,822.75104L814.60333,800.4698L815.10345,801.1228L797.6689,780.2036L798.221,780.81323L779.1263,761.3975L779.7266,761.9597L759.10095,744.17896L759.7455,744.6899L737.72833,728.6642L738.41266,729.1205L715.1531,714.95844L715.8726,715.35693L691.5278,703.15424L692.2776,703.49225L667.0123,693.3315L667.78735,693.60675L641.77246,685.5566L642.56757,685.76715L615.9792,679.8822L616.7889,680.0268L589.8068,676.34674L590.6257,676.4243L563.4324,674.974L564.2548,674.984L537.03436,675.77344L537.8548,675.7158L510.7913,678.7395L511.60425,678.6146L484.8808,683.8522L485.68076,683.66095L459.47806,691.07697L460.25958,690.8206L434.755,700.3648L435.51282,700.0451L410.87885,711.653L411.60782,711.2721L388.0111,724.8651L388.70633,724.4256L366.3065,739.9118L366.96323,739.4166L345.9118,756.6913L346.52563,756.14386L326.96506,775.09015L327.53186,774.494L309.59464,794.9837C305.95682,799.13916,299.6391,799.55884,295.4836,795.921C291.32812,792.2832,290.90848,785.96545,294.5463,781.81 Z"/>
</g>
<g style="fill:rgb(255,255,255); fill-opacity:1.0; stroke-linejoin: miter">
<path d="M-2221.5513,-3761.8684L-2221.5513,-3761.8684L-2221.5513,-3761.8684L-2221.5513,-3761.8684L-2221.5513,-3761.8684L-2221.5513,-3761.8684L-2221.5513,-3761.8684L-2221.5513,-3761.8684L-2221.5513,-3761.8684L-2221.5513,-3761.8684 M-2221.5513,-3718.3044L-2221.5513,-3718.3044L-2221.5513,-3718.3044L-2221.5513,-3718.3044L-2221.5513,-3718.3044L-2221.5513,-3718.3044L-2221.5513,-3718.3044L-2221.5513,-3718.3044L-2221.5513,-3718.3044 Z"/>
</g>
<g style="fill:rgb(255,255,255); fill-opacity:1.0; stroke-linejoin: miter">
<path d="M-23.710417,-231.12904L-23.710417,-231.12904L-23.710417,-231.12904L-23.710417,-231.12904L-23.710417,-231.12904L-23.710417,-231.12904L-23.710417,-231.12904L-23.710417,-231.12904L-23.710417,-231.12904L-23.710417,-231.12904 M-23.710417,-187.56511L-23.710417,-187.56511L-23.710417,-187.56511L-23.710417,-187.56511L-23.710417,-187.56511L-23.710417,-187.56511L-23.710417,-187.56511L-23.710417,-187.56511L-23.710417,-187.56511 Z"/>
</g>
<g style="fill:rgb(255,255,255); fill-opacity:1.0; stroke-linejoin: miter">
<path d="M467.2749,615.3077L467.2749,615.30865L467.2749,615.30963L467.27283,615.3106L467.2749,615.3116L467.2749,615.30963L467.2749,615.30865L467.2749,615.3077L467.2749,615.30865L467.2749,615.3077 Z M467.26804,615.3107L467.26804,615.3117L467.26804,615.3127C409.5895,616.56104,349.0708,633.9942,322.0308,648.4227C206.60146,710.0157,156.6617,763.19653,79.03125,843.2318L160.034,788.16785L160.0356,788.1688C122.31528,837.24976,95.447495,909.6078,91.479,992.1879C89.6584,1030.0726,94.32544,1099.6735,117.383606,1152.0978C145.93224,1217.005,177.22092,1252.2887,211.39088,1277.5751C212.2234,1278.1912,213.0621,1278.8059,213.90704,1279.4192L231.46959,1290.5498C306.34808,1315.3779,359.5257,1323.8191,422.09222,1323.8193L422.0923,1323.8203C440.4867,1323.8193,457.89426,1322.1082,474.25647,1318.4214L474.25677,1318.4224C524.5611,1307.0887,568.19977,1276.5686,610.16425,1236.2313L610.17035,1236.2323C632.8788,1211.5017,652.552,1179.5311,668.1358,1136.8121C686.16705,1087.3842,692.2176,1047.625,684.829,1004.05096L684.82214,1004.05194C658.09796,1039.2471,634.37366,1041.5283,632.96796,1041.6774L632.96783,1041.6783C632.7141,1041.6774,682.82324,959.54156,700.0205,891.4698L700.0135,891.47076C638.39703,941.6256,581.3815,971.4525,529.34454,982.74084C496.02618,989.96857,465.74088,994.4752,438.08453,994.4752C403.3272,994.4752,372.93488,988.29724,346.90756,975.9415C317.85565,915.8257,311.53925,862.5883,329.81027,816.9565C338.13556,796.16406,350.78214,776.7782,365.91406,758.0319L467.2727,615.3107L467.26804,615.3117L467.26804,615.3107 Z M877.9678,825.89014L877.9678,825.8911L877.9678,825.8921L877.959,825.89307L877.959,825.89404L877.959,825.895L877.959,825.896L877.959,825.897L877.959,825.89795L877.959,825.8989L877.959,825.8999L877.959,825.9009L877.959,825.90186L877.959,825.90283L877.959,825.9038L877.959,825.9048L877.959,825.90576L877.959,825.90674L877.959,825.9077L877.959,825.9087L877.959,825.90967C907.81805,921.77405,922.2274,969.89636,876.0622,1078.363C823.2316,1202.4901,738.42065,1235.0067,667.4577,1240.3221L667.46436,1240.3231C614.7134,1296.1577,555.84106,1344.6978,483.831,1360.9204L483.83136,1360.9214C463.8377,1365.425,443.1601,1367.3833,422.09216,1367.3833L422.0921,1367.3843C406.87717,1367.3833,391.30685,1366.3524,375.4664,1364.4763L309.811,1355.5966C342.93063,1382.0157,422.98236,1418.1439,465.98392,1425.7081C501.59628,1431.9725,553.8498,1433.0199,586.4581,1433.0199C763.26685,1433.0199,892.83856,1314.6825,946.6356,1146.8497C980.11005,1042.4183,953.19714,922.19745,934.2967,837.53L932.8828,931.44354L877.9678,825.89014L877.9678,825.8911L877.9678,825.89014 Z"/>
</g>
<g style="fill:rgb(0,0,0); fill-opacity:1.0; stroke-linejoin: miter">
<path d="M310.52673,237.96622L310.52673,237.96622L310.52673,237.96622L310.52673,237.96622L310.52673,237.96622L310.52673,237.96622L310.52673,237.96622L310.52673,237.96622L310.52673,237.96622L310.52673,237.96622 M308.89572,247.8323L308.89572,247.8323L308.89572,247.8323L308.89572,247.8323L308.89572,247.8323L308.89572,247.8323L308.89572,247.8323L308.89572,247.8323L308.89572,247.8323 Z"/>
</g>
</g>
<defs>
<linearGradient id="grad2" gradientUnits="userSpaceOnUse" x1="246.87729" y1="738.35846" x2="478.99258" y2="1203.4106">
<stop offset="0.0%" style="stop-color:rgb(5,84,147); stop-opacity:1.0"/>
<stop offset="100.0%" style="stop-color:rgb(3,37,65); stop-opacity:1.0"/>
</linearGradient>
<linearGradient id="grad5" gradientUnits="userSpaceOnUse" x1="365.56592" y1="619.41895" x2="387.57855" y2="685.03296">
<stop offset="0.0%" style="stop-color:rgb(5,84,147); stop-opacity:1.0"/>
<stop offset="100.0%" style="stop-color:rgb(3,37,65); stop-opacity:1.0"/>
</linearGradient>
<radialGradient id="grad0" gradientUnits="userSpaceOnUse" cx="503.49683" cy="1205.2563" r="435.7555">
<stop offset="0.0%" style="stop-color:rgb(14,106,179); stop-opacity:1.0"/>
<stop offset="100.0%" style="stop-color:rgb(0,188,212); stop-opacity:1.0"/>
</radialGradient>
<linearGradient id="grad1" gradientUnits="userSpaceOnUse" x1="553.9346" y1="1186.036" x2="487.9394" y2="1542.4896">
<stop offset="0.0%" style="stop-color:rgb(5,84,147); stop-opacity:1.0"/>
<stop offset="100.0%" style="stop-color:rgb(3,37,65); stop-opacity:1.0"/>
</linearGradient>
<linearGradient id="grad4" gradientUnits="userSpaceOnUse" x1="986.6571" y1="1202.5752" x2="796.13635" y2="1143.9757">
<stop offset="0.0%" style="stop-color:rgb(5,84,147); stop-opacity:1.0"/>
<stop offset="100.0%" style="stop-color:rgb(3,37,65); stop-opacity:1.0"/>
</linearGradient>
<linearGradient id="grad3" gradientUnits="userSpaceOnUse" x1="229.93793" y1="564.5954" x2="299.76755" y2="862.76306">
<stop offset="0.0%" style="stop-color:rgb(5,84,147); stop-opacity:1.0"/>
<stop offset="100.0%" style="stop-color:rgb(3,37,65); stop-opacity:1.0"/>
</linearGradient>
</defs>
</svg>